# File created by Blade
# Date/Time:  Wed Apr 08 17:00:23 2015
#---------------------------------------------------------
:version 1.10
:name HOM
:units
  mass 1.0
  length 1.000000
  angle deg
:documentation
     Acclaim Skeleton File
:root
   axis xyz
   order TX TY TZ RX RY RZ
   position 0.000000 0.000000 0.000000
   orientation 0 0 0
:bonedata
   begin
      id 1
      name Spine_dum
      direction 0.000000 1.000000 0.000000
      length 5.893853
      axis 0.0 0.0 0.0 xyz
   end
   begin
      id 2
      name LeftUpLeg_dum
      direction 1.000000 0.000000 0.000000
      length 3.697939
      axis 0.0 0.0 0.0 xyz
   end
   begin
      id 3
      name RightUpLeg_dum
      direction -1.000000 0.000000 0.000000
      length 3.697939
      axis 0.0 0.0 0.0 xyz
   end
   begin
      id 4
      name Spine
      direction 0.000000 1.000000 0.000000
      length 0.000000
      axis 0.0 0.0 0.0 xyz
      dof rx ry rz
   end
   begin
      id 5
      name Spine_dum1
      direction 0.000000 1.000000 0.000000
      length 16.447146
      axis 0.0 0.0 0.0 xyz
   end
   begin
      id 6
      name Spine_dum2
      direction 0.000000 1.000000 0.000000
      length 10.900383
      axis 0.0 0.0 0.0 xyz
   end
   begin
      id 7
      name Spine_dum3
      direction 0.000000 1.000000 0.000000
      length 10.900383
      axis 0.0 0.0 0.0 xyz
   end
   begin
      id 8
      name Head
      direction 0.000000 1.000000 0.000000
      length 4.527550
      axis 0.0 0.0 0.0 xyz
      dof rx ry rz
   end
   begin
      id 9
      name LeftShoulder
      direction 1.000000 0.000000 0.000000
      length 8.219464
      axis 0.0 0.0 -90.0 xyz
      dof rx ry rz
   end
   begin
      id 10
      name LeftArm
      direction 1.000000 0.000000 0.000000
      length 11.094937
      axis 0.0 0.0 -90.0 xyz
      dof rx ry rz
   end
   begin
      id 11
      name LeftForeArm
      direction 1.000000 0.000000 0.000000
      length 9.103875
      axis 0.0 0.0 -90.0 xyz
      dof ry rz rx
   end
   begin
      id 12
      name LeftHand
      direction 0.000000 0.000000 0.000000
      length 0.000000
      axis 0.0 0.0 -90.0 xyz
      dof rx ry rz
   end
   begin
      id 13
      name LeftHand_dum1
      direction 0.000000 0.000000 0.000000
      length 0.000000
      axis 0.0 0.0 -90.0 xyz
   end
   begin
      id 14
      name LeftHand_dum2
      direction 1.000000 0.000000 0.000000
      length 3.937000
      axis 0.0 0.0 -90.0 xyz
   end
   begin
      id 15
      name LeftHandThumb1
      direction 0.000000 0.000000 1.000000
      length 3.937000
      axis 0.0 0.0 -90.0 xyz
      dof rx rz ry
   end
   begin
      id 16
      name RightShoulder
      direction -1.000000 0.000000 0.000000
      length 8.219464
      axis 0.0 0.0 90.0 xyz
      dof rx ry rz
   end
   begin
      id 17
      name RightArm
      direction -1.000000 0.000000 0.000000
      length 11.094937
      axis 0.0 0.0 90.0 xyz
      dof rx ry rz
   end
   begin
      id 18
      name RightForeArm
      direction -1.000000 0.000000 0.000000
      length 9.103875
      axis 0.0 0.0 90.0 xyz
      dof ry rz rx
   end
   begin
      id 19
      name RightHand
      direction 0.000000 0.000000 0.000000
      length 0.000000
      axis 0.0 0.0 90.0 xyz
      dof rx ry rz
   end
   begin
      id 20
      name RightHand_dum1
      direction 0.000000 0.000000 0.000000
      length 0.000000
      axis 0.0 0.0 90.0 xyz
   end
   begin
      id 21
      name RightHand_dum2
      direction -1.000000 0.000000 0.000000
      length 3.937000
      axis 0.0 0.0 90.0 xyz
   end
   begin
      id 22
      name RightHandThumb1
      direction 0.000000 0.000000 1.000000
      length 3.937000
      axis 0.0 0.0 90.0 xyz
      dof rx rz ry
   end
   begin
      id 23
      name LeftUpLeg
      direction 0.000000 -1.000000 0.000000
      length 16.181467
      axis 0.0 0.0 0.0 xyz
      dof rx ry rz
   end
   begin
      id 24
      name LeftLeg
      direction 0.000000 -1.000000 0.000000
      length 16.501392
      axis 0.0 0.0 0.0 xyz
      dof rx ry rz
   end
   begin
      id 25
      name LeftFoot
      direction 0.000000 -0.258819 0.965926
      length 6.408245
      axis 15.0 0.0 0.0 xyz
      dof rx ry rz
   end
   begin
      id 26
      name LeftToeBase
      direction 0.000000 0.000000 1.000000
      length 2.952750
      axis 0.0 0.0 0.0 xyz
      dof rx ry rz
   end
   begin
      id 27
      name RightUpLeg
      direction 0.000000 -1.000000 0.000000
      length 16.181467
      axis 0.0 0.0 0.0 xyz
      dof rx ry rz
   end
   begin
      id 28
      name RightLeg
      direction 0.000000 -1.000000 0.000000
      length 16.501392
      axis 0.0 0.0 0.0 xyz
      dof rx ry rz
   end
   begin
      id 29
      name RightFoot
      direction 0.000000 -0.258819 0.965926
      length 6.408245
      axis 15.0 0.0 0.0 xyz
      dof rx ry rz
   end
   begin
      id 30
      name RightToeBase
      direction 0.000000 0.000000 1.000000
      length 2.952750
      axis 0.0 0.0 0.0 xyz
      dof rx ry rz
   end
:hierarchy
   begin
      root Spine_dum LeftUpLeg_dum RightUpLeg_dum
      Spine_dum Spine
      LeftUpLeg_dum LeftUpLeg
      RightUpLeg_dum RightUpLeg
      Spine Spine_dum1 Spine_dum2 Spine_dum3
      Spine_dum1 Head
      Spine_dum2 LeftShoulder
      Spine_dum3 RightShoulder
      LeftShoulder LeftArm
      LeftArm LeftForeArm
      LeftForeArm LeftHand
      LeftHand LeftHand_dum1 LeftHand_dum2
      LeftHand_dum1 LeftHandThumb1
      RightShoulder RightArm
      RightArm RightForeArm
      RightForeArm RightHand
      RightHand RightHand_dum1 RightHand_dum2
      RightHand_dum1 RightHandThumb1
      LeftUpLeg LeftLeg
      LeftLeg LeftFoot
      LeftFoot LeftToeBase
      RightUpLeg RightLeg
      RightLeg RightFoot
      RightFoot RightToeBase
   end

# File created by Blade
# Date/Time:  Wed Apr 08 17:00:17 2015
# Frame Rate: 120.000 fps
#------------------------------------------------------
:FULLY-SPECIFIED
:DEGREES
309
root 1.442047 35.798385 2.844115 -28.403182 -81.048980 17.489783
Spine 7.689070 4.762733 -6.735791
Head -20.314679 9.633810 -25.229515
LeftShoulder 8.101854 -4.888294 27.782272
LeftArm 83.560989 44.445670 -55.977216
LeftForeArm -50.353244 -0.000000 90.377976
LeftHand -19.463932 -0.000000 0.721798
LeftHandThumb1 -26.253704 0.000000 33.147579
RightShoulder 0.942078 -26.678806 -28.687416
RightArm 113.548175 28.678532 78.258299
RightForeArm 44.933524 -0.000000 138.248170
RightHand 0.440545 -0.000000 33.740462
RightHandThumb1 -24.326973 -0.000000 -32.862282
LeftUpLeg 12.700371 6.915089 5.054908
LeftLeg 11.345119 -0.000000 -0.000000
LeftFoot -13.428145 0.514923 -10.488729
LeftToeBase 8.765516 -0.000000 -0.000000
RightUpLeg 19.867465 -14.530449 -15.428813
RightLeg 2.629754 -0.000000 -0.000000
RightFoot -11.943102 2.949325 19.350321
RightToeBase 14.115009 -0.000000 -0.000000
310
root 1.437321 35.797160 2.852042 -28.548526 -81.102367 17.598826
Spine 7.657964 4.658767 -6.628284
Head -20.091180 9.867383 -25.428707
LeftShoulder 8.047287 -4.881578 27.758526
LeftArm 83.357872 44.393438 -56.118738
LeftForeArm -50.297194 0.000000 90.676566
LeftHand -19.746325 -0.000000 0.978819
LeftHandThumb1 -26.253704 0.000000 33.147579
RightShoulder 0.834846 -26.520697 -28.599903
RightArm 113.981765 28.400789 78.802298
RightForeArm 45.276496 -0.000000 138.345876
RightHand 0.404806 -0.000000 34.155811
RightHandThumb1 -24.326973 -0.000000 -32.862282
LeftUpLeg 12.748686 6.962319 5.060201
LeftLeg 11.367560 -0.000000 -0.000000
LeftFoot -13.444697 0.485279 -10.526315
LeftToeBase 8.743265 -0.000000 -0.000000
RightUpLeg 19.894503 -14.497345 -15.449695
RightLeg 2.633504 -0.000000 -0.000000
RightFoot -11.940618 2.986856 19.358911
RightToeBase 14.203816 -0.000000 -0.000000
311
root 1.432560 35.795957 2.861502 -28.755682 -81.161830 17.767941
Spine 7.638093 4.597943 -6.529105
Head -19.885820 10.066007 -25.599371
LeftShoulder 7.999497 -4.882434 27.762614
LeftArm 83.276082 44.337335 -56.164384
LeftForeArm -50.182235 -0.000000 90.939404
LeftHand -19.899854 -0.000000 1.233978
LeftHandThumb1 -26.253704 0.000000 33.147579
RightShoulder 0.675040 -26.437141 -28.444466
RightArm 114.509111 28.150547 79.322979
RightForeArm 45.571729 0.000000 138.404111
RightHand 0.329024 0.000000 34.024469
RightHandThumb1 -24.326973 -0.000000 -32.862282
LeftUpLeg 12.810817 6.998688 5.053369
LeftLeg 11.374937 -0.000000 -0.000000
LeftFoot -13.503258 0.515513 -10.531092
LeftToeBase 8.848490 -0.000000 -0.000000
RightUpLeg 19.919045 -14.461485 -15.480678
RightLeg 2.641364 -0.000000 -0.000000
RightFoot -11.930926 3.026224 19.356370
RightToeBase 14.146435 -0.000000 -0.000000
312
root 1.427524 35.794723 2.870859 -28.937430 -81.228196 17.907086
Spine 7.634125 4.550827 -6.412881
Head -19.705161 10.235290 -25.756673
LeftShoulder 7.963251 -4.892352 27.759947
LeftArm 83.228161 44.269394 -56.172220
LeftForeArm -50.061969 -0.000000 91.219669
LeftHand -20.116569 0.000000 1.518026
LeftHandThumb1 -26.253704 0.000000 33.147579
RightShoulder 0.479864 -26.278404 -28.296624
RightArm 114.935198 27.873608 79.797004
RightForeArm 45.758722 -0.000000 138.443884
RightHand 0.469733 0.000000 34.230297
RightHandThumb1 -24.326973 -0.000000 -32.862282
LeftUpLeg 12.872801 7.053454 5.060344
LeftLeg 11.391147 -0.000000 -0.000000
LeftFoot -13.523762 0.493141 -10.585679
LeftToeBase 8.816704 -0.000000 -0.000000
RightUpLeg 19.939880 -14.402517 -15.494785
RightLeg 2.657522 -0.000000 -0.000000
RightFoot -11.930540 3.040835 19.355411
RightToeBase 14.152038 -0.000000 -0.000000
313
root 1.422668 35.793578 2.880983 -29.159410 -81.301441 18.082174
Spine 7.625096 4.501693 -6.291602
Head -19.487554 10.390701 -25.896222
LeftShoulder 7.920137 -4.874132 27.756082
LeftArm 83.152971 44.201812 -56.208945
LeftForeArm -49.901810 -0.000000 91.572244
LeftHand -20.406757 -0.000000 1.810081
LeftHandThumb1 -26.253704 0.000000 33.147579
RightShoulder 0.309810 -26.100196 -28.146739
RightArm 115.325178 27.618613 80.202723
RightForeArm 45.716257 -0.000000 138.466067
RightHand 0.875450 -0.000000 34.419493
RightHandThumb1 -24.326973 -0.000000 -32.862282
LeftUpLeg 12.947817 7.106335 5.062373
LeftLeg 11.398306 -0.000000 -0.000000
LeftFoot -13.587339 0.516953 -10.604151
LeftToeBase 8.920078 -0.000000 -0.000000
RightUpLeg 19.962203 -14.347533 -15.519830
RightLeg 2.677909 -0.000000 -0.000000
RightFoot -11.925332 3.085571 19.357453
RightToeBase 14.148632 -0.000000 -0.000000
314
root 1.418442 35.792181 2.890777 -29.380293 -81.372444 18.263306
Spine 7.599312 4.396322 -6.171174
Head -19.264209 10.614150 -26.058310
LeftShoulder 7.865705 -4.845804 27.762793
LeftArm 83.069506 44.127050 -56.228037
LeftForeArm -49.809986 0.000000 91.884699
LeftHand -20.512383 -0.000000 2.103427
LeftHandThumb1 -26.253704 0.000000 33.147579
RightShoulder 0.211724 -25.988849 -28.039463
RightArm 115.797888 27.395005 80.634894
RightForeArm 45.843000 -0.000000 138.460757
RightHand 0.496376 0.000000 34.398411
RightHandThumb1 -24.326973 -0.000000 -32.862282
LeftUpLeg 13.009048 7.149873 5.059344
LeftLeg 11.413615 -0.000000 -0.000000
LeftFoot -13.636373 0.526314 -10.626042
LeftToeBase 8.983345 -0.000000 -0.000000
RightUpLeg 19.972808 -14.291001 -15.542647
RightLeg 2.704724 -0.000000 -0.000000
RightFoot -11.916353 3.126935 19.370336
RightToeBase 14.104859 -0.000000 -0.000000
315
root 1.414310 35.788786 2.901937 -29.639369 -81.441062 18.475963
Spine 7.589383 4.375217 -6.065669
Head -19.014519 10.773164 -26.139685
LeftShoulder 7.905384 -4.925865 27.808886
LeftArm 82.742680 44.085912 -56.509682
LeftForeArm -49.786236 -0.000000 92.298720
LeftHand -21.044758 0.000000 2.361860
LeftHandThumb1 -26.253704 0.000000 33.147579
RightShoulder 0.045551 -25.872140 -27.850168
RightArm 116.244005 27.214135 81.037934
RightForeArm 46.027900 -0.000000 138.471551
RightHand 0.651057 -0.000000 34.485426
RightHandThumb1 -24.326973 -0.000000 -32.862282
LeftUpLeg 13.074849 7.187959 5.048121
LeftLeg 11.430466 -0.000000 -0.000000
LeftFoot -13.690430 0.539160 -10.658294
LeftToeBase 9.010657 -0.000000 -0.000000
RightUpLeg 19.988807 -14.242622 -15.579659
RightLeg 2.738845 -0.000000 -0.000000
RightFoot -11.931913 3.179398 19.368698
RightToeBase 14.136589 -0.000000 -0.000000
316
root 1.410321 35.786807 2.913248 -29.877800 -81.503499 18.664174
Spine 7.593607 4.274048 -5.948452
Head -18.805592 10.964640 -26.252471
LeftShoulder 7.846487 -4.940627 27.825492
LeftArm 82.603587 44.032833 -56.599077
LeftForeArm -49.648739 -0.000000 92.634320
LeftHand -21.390097 -0.000000 2.651006
LeftHandThumb1 -26.253704 0.000000 33.147579
RightShoulder -0.062212 -25.752894 -27.770745
RightArm 116.665097 26.987348 81.476714
RightForeArm 46.134608 -0.000000 138.518779
RightHand 0.499797 0.000000 34.336410
RightHandThumb1 -24.326973 -0.000000 -32.862282
LeftUpLeg 13.138201 7.209005 5.034335
LeftLeg 11.456101 -0.000000 -0.000000
LeftFoot -13.739842 0.573018 -10.681627
LeftToeBase 9.045441 -0.000000 -0.000000
RightUpLeg 20.015612 -14.206190 -15.619382
RightLeg 2.763539 -0.000000 -0.000000
RightFoot -11.929166 3.244390 19.387426
RightToeBase 14.146720 -0.000000 -0.000000
317
root 1.406129 35.785687 2.924842 -30.137380 -81.565249 18.897076
Spine 7.550056 4.119917 -5.832530
Head -18.563203 11.222765 -26.392679
LeftShoulder 7.753813 -4.920910 27.832506
LeftArm 82.493612 43.984301 -56.636315
LeftForeArm -49.482394 -0.000000 92.905500
LeftHand -21.441737 -0.000000 2.991041
LeftHandThumb1 -26.253704 0.000000 33.147579
RightShoulder -0.096635 -25.621992 -27.728748
RightArm 117.059601 26.744684 81.882877
RightForeArm 46.453461 0.000000 138.546962
RightHand 1.122490 -0.000000 34.455105
RightHandThumb1 -24.326973 -0.000000 -32.862282
LeftUpLeg 13.170026 7.232678 5.010843
LeftLeg 11.499937 -0.000000 -0.000000
LeftFoot -13.790108 0.595154 -10.706897
LeftToeBase 9.053596 -0.000000 -0.000000
RightUpLeg 20.018913 -14.182933 -15.661912
RightLeg 2.787496 -0.000000 -0.000000
RightFoot -11.912678 3.304508 19.377760
RightToeBase 14.122734 -0.000000 -0.000000
318
root 1.402679 35.785065 2.938651 -30.349236 -81.625008 19.064284
Spine 7.521231 4.152120 -5.690389
Head -18.214874 11.295396 -26.465062
LeftShoulder 7.846427 -4.938132 27.853655
LeftArm 82.489539 43.883304 -56.634525
LeftForeArm -49.312768 0.000000 93.112438
LeftHand -21.559497 -0.000000 3.228245
LeftHandThumb1 -26.253704 0.000000 33.147579
RightShoulder -0.269228 -25.629500 -27.594376
RightArm 117.495079 26.572793 82.310553
RightForeArm 46.716837 0.000000 138.558616
RightHand 1.168192 0.000000 34.396710
RightHandThumb1 -24.326973 -0.000000 -32.862282
LeftUpLeg 13.224275 7.236105 4.989212
LeftLeg 11.527367 -0.000000 -0.000000
LeftFoot -13.833254 0.637564 -10.744641
LeftToeBase 9.046811 -0.000000 -0.000000
RightUpLeg 20.039512 -14.173432 -15.710469
RightLeg 2.817567 -0.000000 -0.000000
RightFoot -11.888226 3.380450 19.377458
RightToeBase 14.125058 -0.000000 -0.000000
319
root 1.396894 35.782706 2.952187 -30.621700 -81.674604 19.281608
Spine 7.529154 4.157633 -5.587711
Head -17.941465 11.368740 -26.452393
LeftShoulder 7.894582 -5.018039 27.917477
LeftArm 82.413247 43.836726 -56.712668
LeftForeArm -49.293719 -0.000000 93.307926
LeftHand -21.634019 -0.000000 3.413166
LeftHandThumb1 -26.253704 0.000000 33.147579
RightShoulder -0.457598 -25.583514 -27.416451
RightArm 117.871021 26.383604 82.727493
RightForeArm 47.128732 0.000000 138.579553
RightHand 1.150883 -0.000000 34.333817
RightHandThumb1 -24.326973 -0.000000 -32.862282
LeftUpLeg 13.289011 7.239779 4.961221
LeftLeg 11.562813 -0.000000 -0.000000
LeftFoot -13.890620 0.667124 -10.771748
LeftToeBase 9.092625 -0.000000 -0.000000
RightUpLeg 20.089815 -14.166693 -15.777200
RightLeg 2.823157 -0.000000 -0.000000
RightFoot -11.868425 3.467848 19.399762
RightToeBase 14.134470 -0.000000 -0.000000
